<svg viewBox="0 0 753 718" fill="none" xmlns="http://www.w3.org/2000/svg">
<path d="M494.591 3.82711C539.791 21.5271 551.591 105.327 595.191 173.327C638.791 241.327 714.091 293.427 741.091 361.227C768.091 428.927 746.691 512.327 698.891 572.927C651.091 633.527 576.691 671.427 504.591 681.827C432.391 692.127 362.391 674.827 286.491 685.127C210.591 695.327 128.691 733.127 80.0907 709.227C31.3907 685.227 15.9907 599.727 15.1907 528.827C14.4907 457.927 28.3907 401.827 21.4907 341.627C14.5907 281.427 -13.2093 217.327 7.59071 181.227C28.4907 145.127 97.8907 137.127 153.491 125.327C209.091 113.627 250.691 98.1271 310.791 66.2271C370.891 34.3271 449.391 -13.9729 494.591 3.82711Z" />
</svg>
