<svg viewBox="0 0 653 660" fill="none" xmlns="http://www.w3.org/2000/svg">
<path d="M546.489 10.7208C598.989 29.9208 640.389 79.5208 650.289 134.621C660.089 189.821 638.289 250.421 623.889 302.821C609.489 355.121 602.389 399.121 584.389 440.221C566.489 481.421 537.789 519.621 499.689 551.521C461.589 583.321 414.089 608.721 354.489 629.621C294.889 650.621 223.289 667.021 151.089 654.921C78.8888 642.721 6.2888 601.921 0.388797 539.821C-5.4112 477.821 55.5888 394.421 56.2888 311.521C56.9888 228.621 -2.51118 146.121 10.2888 96.2208C23.0888 46.2208 108.389 28.8208 179.789 20.6208C251.289 12.3208 308.889 13.2208 369.589 8.02076C430.289 2.82076 493.889 -8.37923 546.489 10.7208Z"/>
</svg>
