<svg  viewBox="0 0 720 635" fill="none" xmlns="http://www.w3.org/2000/svg">
<path d="M546.308 5.6016C585.108 25.8016 590.108 106.902 601.908 169.802C613.708 232.702 632.408 277.602 661.708 339.302C691.008 401.102 730.908 479.702 715.708 536.702C700.408 593.802 630.008 629.102 561.908 633.802C493.808 638.502 427.908 612.402 371.908 595.502C315.808 578.702 269.408 570.902 197.308 568.602C125.108 566.202 27.1079 569.302 5.1079 529.202C-16.8921 489.102 37.1079 405.702 73.2079 343.202C109.308 280.702 127.408 239.102 142.408 186.802C157.408 134.602 169.308 71.7016 205.308 49.9016C241.408 28.1016 301.808 47.2016 368.308 36.6016C434.808 25.9016 507.408 -14.6984 546.308 5.6016Z" />
</svg>
