<svg  viewBox="0 0 734 648" fill="none" xmlns="http://www.w3.org/2000/svg">
<path d="M573.999 0C646.099 0 719.999 38.8 731.699 99.9C743.499 160.9 693.099 244.3 682.699 321.6C672.399 398.9 701.899 470.3 686.399 524.8C670.899 579.4 610.399 617.2 548.599 634.5C486.799 651.8 423.799 648.7 363.699 643.7C303.599 638.6 246.499 631.6 174.399 620.2C102.399 608.8 15.4993 592.9 1.99928 543.4C-11.6007 493.9 48.0993 410.8 62.9993 336.2C77.7993 261.6 47.7993 195.6 60.1993 143.9C72.4993 92.3 127.199 54.9 184.299 46.2C241.499 37.6 301.099 57.6 366.199 48.2C431.299 38.8 501.799 0 573.999 0Z" />
</svg>
