<svg viewBox="0 0 788 881" fill="none" xmlns="http://www.w3.org/2000/svg">
<path d="M535.958 167.605C599.158 205.305 683.858 204.405 732.358 240.505C780.858 276.605 793.158 349.605 786.158 418.605C779.258 487.605 753.158 552.605 722.058 618.905C691.058 685.105 654.958 752.605 598.658 803.405C542.358 854.305 465.858 888.405 395.058 878.605C324.158 868.805 259.058 815.005 210.258 759.805C161.458 704.705 129.058 648.106 90.2581 591.706C51.5581 535.306 6.45808 478.905 0.658083 419.305C-5.14192 359.605 28.4581 296.605 59.6581 227.005C90.7581 157.505 119.558 81.3055 174.158 38.7055C228.658 -3.99452 309.058 -13.1945 370.058 20.3055C431.058 53.8055 472.658 129.905 535.958 167.605Z" />
</svg>
