<svg  viewBox="0 0 719 742" fill="none" xmlns="http://www.w3.org/2000/svg">
<path d="M528.028 122.419C585.528 166.019 652.428 183.219 683.428 225.019C714.428 266.919 709.528 333.419 712.428 401.619C715.328 469.719 725.928 539.619 708.928 605.719C691.928 671.819 647.328 734.219 586.828 740.919C526.428 747.719 450.028 698.819 388.328 673.519C326.528 648.319 279.428 646.619 207.228 646.619C135.028 646.619 37.9275 648.319 9.82754 607.419C-18.2725 566.619 22.7275 483.219 23.6275 400.419C24.4275 317.619 -14.7725 235.219 8.02752 185.319C30.8275 135.419 115.828 117.819 187.128 82.119C258.428 46.519 316.028 -7.28106 369.028 0.818945C422.028 8.91895 470.428 78.819 528.028 122.419Z" />
</svg>
