<svg viewBox="0 0 347 365" fill="none" xmlns="http://www.w3.org/2000/svg">
<path d="M223 325H24V341H222.5C278.5 341 322.5 293 322.5 244.5V150.5H306V240.5C306 278 276.5 325 223 325Z" fill="#B8405E"/>
<path d="M215.5 295.5H24V309H215.5C269 309 290 273 290 241.5V150.5H275V235.5C275 265 261.5 295.5 215.5 295.5Z" fill="#B8405E"/>
<path d="M212 263.5H24V279.5H213.5C246 279.5 260.5 259.5 260.5 234V150.5H244.5V231C244.5 247 236 263.5 212 263.5Z" fill="#B8405E"/>
<path d="M206.5 231H24V247H209.5C219.5 247 228.5 238 228.5 228V150.5H212.5V225C212.5 229 210.5 231 206.5 231Z" fill="#B8405E"/>
<path d="M124 40L323 40V24L124.5 24C68.5 24 24.5 72 24.5 120.5V214.5H41V124.5C41 87 70.5 40 124 40Z" fill="#B8405E"/>
<path d="M131.5 69.5L323 69.5V56L131.5 56C78 56 57 92 57 123.5V214.5H72V129.5C72 100 85.5 69.5 131.5 69.5Z" fill="#B8405E"/>
<path d="M135 101.5L323 101.5V85.5L133.5 85.5C101 85.5 86.5 105.5 86.5 131V214.5H102.5V134C102.5 118 111 101.5 135 101.5Z" fill="#B8405E"/>
<path d="M140.5 134L323 134V118L137.5 118C127.5 118 118.5 127 118.5 137V214.5H134.5V140C134.5 136 136.5 134 140.5 134Z" fill="#B8405E"/>
</svg>
